<?xml version="1.0" encoding="UTF-8" standalone="no"?>
<!DOCTYPE svg PUBLIC "-//W3C//DTD SVG 1.1//EN"
 "http://www.w3.org/Graphics/SVG/1.1/DTD/svg11.dtd">
<!-- Generated by graphviz version 3.0.0 (20221109.1736)
 -->
<!-- Pages: 1 -->
<svg width="1376pt" height="197pt"
 viewBox="0.00 0.00 1376.00 197.00" xmlns="http://www.w3.org/2000/svg" xmlns:xlink="http://www.w3.org/1999/xlink">
<g id="graph0" class="graph" transform="scale(1 1) rotate(0) translate(36 161)">
<polygon fill="white" stroke="transparent" points="-36,36 -36,-161 1340,-161 1340,36 -36,36"/>
<!-- prometheus -->
<g id="node1" class="node">
<title>prometheus</title>
<polygon fill="none" stroke="black" points="1304,-125 632,-125 632,-121 628,-121 628,-117 632,-117 632,-95 628,-95 628,-91 632,-91 632,-87 1304,-87 1304,-125"/>
<polyline fill="none" stroke="black" points="632,-121 636,-121 636,-117 632,-117 "/>
<polyline fill="none" stroke="black" points="632,-95 636,-95 636,-91 632,-91 "/>
<text text-anchor="middle" x="968" y="-109.8" font-family="Times,serif" font-size="14.00">prometheus</text>
<text text-anchor="middle" x="968" y="-94.8" font-family="Times,serif" font-size="14.00">(build from &#39;prometheus&#39;, image: ghcr.io/b3partners/tailormap&#45;monitoring_prometheus:snapshot)</text>
</g>
<!-- tailormap&#45;monitoring -->
<g id="node2" class="node">
<title>tailormap&#45;monitoring</title>
<polygon fill="none" stroke="black" points="790.39,-23.56 637,-36 483.61,-23.56 542.2,-3.44 731.8,-3.44 790.39,-23.56"/>
<text text-anchor="middle" x="637" y="-14.3" font-family="Times,serif" font-size="14.00">net:tailormap&#45;monitoring</text>
</g>
<!-- prometheus&#45;&gt;tailormap&#45;monitoring -->
<g id="edge1" class="edge">
<title>prometheus&#45;&gt;tailormap&#45;monitoring</title>
<path fill="none" stroke="black" d="M898.61,-86.97C838.88,-71.45 753.59,-49.29 696.82,-34.54"/>
<polygon fill="black" stroke="black" points="697.47,-31.1 686.92,-31.97 695.71,-37.87 697.47,-31.1"/>
</g>
<!-- tailormap&#45;viewer -->
<g id="node3" class="node">
<title>tailormap&#45;viewer</title>
<polygon fill="none" stroke="black" points="1082.19,-23.56 953,-36 823.81,-23.56 873.16,-3.44 1032.84,-3.44 1082.19,-23.56"/>
<text text-anchor="middle" x="953" y="-14.3" font-family="Times,serif" font-size="14.00">net:tailormap&#45;viewer</text>
</g>
<!-- prometheus&#45;&gt;tailormap&#45;viewer -->
<g id="edge2" class="edge">
<title>prometheus&#45;&gt;tailormap&#45;viewer</title>
<path fill="none" stroke="black" d="M964.82,-86.76C962.74,-74.86 960,-59.11 957.67,-45.79"/>
<polygon fill="black" stroke="black" points="961.09,-45 955.92,-35.75 954.19,-46.21 961.09,-45"/>
</g>
<!-- prometheus&#45;data -->
<g id="node4" class="node">
<title>prometheus&#45;data</title>
<path fill="none" stroke="black" d="M1232,-32.73C1232,-34.53 1202.42,-36 1166,-36 1129.58,-36 1100,-34.53 1100,-32.73 1100,-32.73 1100,-3.27 1100,-3.27 1100,-1.47 1129.58,0 1166,0 1202.42,0 1232,-1.47 1232,-3.27 1232,-3.27 1232,-32.73 1232,-32.73"/>
<path fill="none" stroke="black" d="M1232,-32.73C1232,-30.92 1202.42,-29.45 1166,-29.45 1129.58,-29.45 1100,-30.92 1100,-32.73"/>
<text text-anchor="middle" x="1166" y="-14.3" font-family="Times,serif" font-size="14.00">prometheus&#45;data</text>
</g>
<!-- prometheus&#45;&gt;prometheus&#45;data -->
<g id="edge3" class="edge">
<title>prometheus&#45;&gt;prometheus&#45;data</title>
<path fill="none" stroke="black" stroke-dasharray="5,2" d="M1018.72,-82.97C1049.1,-69.77 1087.51,-53.09 1117.49,-40.07"/>
<polygon fill="black" stroke="black" points="1017.29,-79.78 1009.51,-86.97 1020.07,-86.2 1017.29,-79.78"/>
<polygon fill="black" stroke="black" points="1119.13,-43.17 1126.9,-35.98 1116.34,-36.75 1119.13,-43.17"/>
<text text-anchor="middle" x="1127.5" y="-57.8" font-family="Times,serif" font-size="14.00">/prometheus</text>
</g>
<!-- grafana -->
<g id="node5" class="node">
<title>grafana</title>
<polygon fill="none" stroke="black" points="614,-125 0,-125 0,-121 -4,-121 -4,-117 0,-117 0,-95 -4,-95 -4,-91 0,-91 0,-87 614,-87 614,-125"/>
<polyline fill="none" stroke="black" points="0,-121 4,-121 4,-117 0,-117 "/>
<polyline fill="none" stroke="black" points="0,-95 4,-95 4,-91 0,-91 "/>
<text text-anchor="middle" x="307" y="-109.8" font-family="Times,serif" font-size="14.00">grafana</text>
<text text-anchor="middle" x="307" y="-94.8" font-family="Times,serif" font-size="14.00">(build from &#39;grafana&#39;, image: ghcr.io/b3partners/tailormap&#45;monitoring_grafana:snapshot)</text>
</g>
<!-- grafana&#45;&gt;tailormap&#45;monitoring -->
<g id="edge4" class="edge">
<title>grafana&#45;&gt;tailormap&#45;monitoring</title>
<path fill="none" stroke="black" d="M376.18,-86.97C435.73,-71.45 520.76,-49.29 577.36,-34.54"/>
<polygon fill="black" stroke="black" points="578.44,-37.88 587.24,-31.97 576.68,-31.1 578.44,-37.88"/>
</g>
<!-- traefik -->
<g id="node6" class="node">
<title>traefik</title>
<polygon fill="none" stroke="black" points="435.79,-23.56 366,-36 296.21,-23.56 322.87,-3.44 409.13,-3.44 435.79,-23.56"/>
<text text-anchor="middle" x="366" y="-14.3" font-family="Times,serif" font-size="14.00">net:traefik</text>
</g>
<!-- grafana&#45;&gt;traefik -->
<g id="edge5" class="edge">
<title>grafana&#45;&gt;traefik</title>
<path fill="none" stroke="black" d="M321.63,-86.97C326.05,-81.31 330.84,-74.98 335,-69 340.68,-60.84 346.52,-51.65 351.58,-43.4"/>
<polygon fill="black" stroke="black" points="354.73,-44.96 356.92,-34.59 348.75,-41.33 354.73,-44.96"/>
</g>
<!-- grafana&#45;data -->
<g id="node7" class="node">
<title>grafana&#45;data</title>
<path fill="none" stroke="black" d="M278,-32.73C278,-34.53 254.69,-36 226,-36 197.31,-36 174,-34.53 174,-32.73 174,-32.73 174,-3.27 174,-3.27 174,-1.47 197.31,0 226,0 254.69,0 278,-1.47 278,-3.27 278,-3.27 278,-32.73 278,-32.73"/>
<path fill="none" stroke="black" d="M278,-32.73C278,-30.92 254.69,-29.45 226,-29.45 197.31,-29.45 174,-30.92 174,-32.73"/>
<text text-anchor="middle" x="226" y="-14.3" font-family="Times,serif" font-size="14.00">grafana&#45;data</text>
</g>
<!-- grafana&#45;&gt;grafana&#45;data -->
<g id="edge6" class="edge">
<title>grafana&#45;&gt;grafana&#45;data</title>
<path fill="none" stroke="black" stroke-dasharray="5,2" d="M236.6,-80.85C232.53,-77.41 228.91,-73.48 226,-69 221.66,-62.32 220.43,-54 220.64,-46.08"/>
<polygon fill="black" stroke="black" points="234.77,-83.85 244.92,-86.89 238.88,-78.19 234.77,-83.85"/>
<polygon fill="black" stroke="black" points="224.13,-46.36 221.61,-36.07 217.16,-45.68 224.13,-46.36"/>
<text text-anchor="middle" x="278.5" y="-57.8" font-family="Times,serif" font-size="14.00">/var/lib/grafana</text>
</g>
</g>
</svg>
